<svg xmlns="http://www.w3.org/2000/svg" width="29.875" height="25.548" viewBox="0 0 29.875 25.548">
  <path id="heart-regular" d="M14.237,44.594l.648.7.7-.7a8.488,8.488,0,0,1,7.323-2.329,8.338,8.338,0,0,1,6.967,8.227v.338A8.729,8.729,0,0,1,27.1,57.221L16.554,67.064a2.372,2.372,0,0,1-3.233,0L2.777,57.221A8.737,8.737,0,0,1,0,50.831v-.338a8.34,8.34,0,0,1,14.237-5.9c-.053,0,0,0,0,0Zm.648,4.662-2.626-2.731a5.662,5.662,0,0,0-4.831-1.5A5.541,5.541,0,0,0,2.8,50.493v.338a5.933,5.933,0,0,0,1.887,4.341l10.25,9.569,10.252-9.569a5.938,5.938,0,0,0,1.885-4.341v-.338a5.543,5.543,0,0,0-4.627-5.465,5.662,5.662,0,0,0-4.831,1.5Z" transform="translate(0 -42.152)" fill="#ff1616"/>
</svg>
